<?xml version="1.0" encoding="utf-8"?>
<!-- Generator: Adobe Illustrator 16.0.0, SVG Export Plug-In . SVG Version: 6.00 Build 0)  -->
<!DOCTYPE svg PUBLIC "-//W3C//DTD SVG 1.1//EN" "http://www.w3.org/Graphics/SVG/1.1/DTD/svg11.dtd">
<svg version="1.1" id="Layer_1" xmlns="http://www.w3.org/2000/svg" xmlns:xlink="http://www.w3.org/1999/xlink" x="0px" y="0px"
	 width="103.06px" height="102.881px" viewBox="0 0 103.06 102.881" enable-background="new 0 0 103.06 102.881"
	 xml:space="preserve">
<path fill="#FFFFFF" d="M1.702,34.16h21.359v68.721H1.702V34.16z M12.387,0c6.828,0,12.377,5.549,12.377,12.38
	c0,6.837-5.549,12.386-12.377,12.386C5.541,24.766,0,19.217,0,12.38C0,5.549,5.541,0,12.387,0"/>
<path fill="#FFFFFF" d="M36.458,34.16h20.485v9.39h0.286c2.852-5.403,9.818-11.099,20.209-11.099
	c21.628,0,25.621,14.234,25.621,32.736v37.694H81.716V69.462c0-7.969-0.146-18.22-11.099-18.22
	c-11.113,0-12.819,8.681-12.819,17.644v33.996h-21.34V34.16z"/>
</svg>
